<?xml version="1.0" encoding="UTF-8" standalone="no"?>
<!-- Generator: Adobe Illustrator 21.1.0, SVG Export Plug-In . SVG Version: 6.00 Build 0)  -->

<svg
   xmlns:dc="http://purl.org/dc/elements/1.1/"
   xmlns:cc="http://creativecommons.org/ns#"
   xmlns:rdf="http://www.w3.org/1999/02/22-rdf-syntax-ns#"
   xmlns:svg="http://www.w3.org/2000/svg"
   xmlns="http://www.w3.org/2000/svg"
   xmlns:sodipodi="http://sodipodi.sourceforge.net/DTD/sodipodi-0.dtd"
   xmlns:inkscape="http://www.inkscape.org/namespaces/inkscape"
   version="1.1"
   x="0px"
   y="0px"
   viewBox="0 0 170.66046 152.36599"
   xml:space="preserve"
   id="svg22"
   sodipodi:docname="RedditGrey.svg"
   inkscape:version="0.92.4 (5da689c313, 2019-01-14)"
   width="170.66045"
   height="152.36598"><metadata
   id="metadata28"><rdf:RDF><cc:Work
       rdf:about=""><dc:format>image/svg+xml</dc:format><dc:type
         rdf:resource="http://purl.org/dc/dcmitype/StillImage" /><dc:title></dc:title></cc:Work></rdf:RDF></metadata><defs
   id="defs26">
	
</defs><sodipodi:namedview
   pagecolor="#ffffff"
   bordercolor="#666666"
   borderopacity="1"
   objecttolerance="10"
   gridtolerance="10"
   guidetolerance="10"
   inkscape:pageopacity="0"
   inkscape:pageshadow="2"
   inkscape:window-width="2560"
   inkscape:window-height="1377"
   id="namedview24"
   showgrid="false"
   inkscape:zoom="5.0035042"
   inkscape:cx="127.02647"
   inkscape:cy="74.989912"
   inkscape:window-x="2552"
   inkscape:window-y="-8"
   inkscape:window-maximized="1"
   inkscape:current-layer="svg22"
   fit-margin-top="0"
   fit-margin-left="0"
   fit-margin-right="0"
   fit-margin-bottom="0" />
<style
   type="text/css"
   id="style2">
	.st0{fill:#FF4500;}
	.st1{fill:#FFFFFF;}
	.st2{display:none;}
	.st3{display:inline;fill:none;stroke:#D8D8D8;stroke-width:0.5;stroke-miterlimit:10;}
</style>
<g
   style="fill:#4c4c4c;fill-opacity:1"
   id="g8"
   transform="translate(-85.669776,-93.817009)">
		<path
   style="fill:#4c4c4c;fill-opacity:1"
   d="m 224.38668,93.817009 c 7.34824,0 13.3474,5.999153 13.3474,13.347401 0,7.34825 -5.99916,13.3474 -13.3474,13.3474 -7.19829,0 -13.04748,-5.69864 -13.3474,-12.74696 l -27.74338,-5.84919 -8.54679,40.0422 c 19.49534,0.74982 37.19229,6.74781 49.93925,15.89562 3.29921,-3.29921 7.79755,-5.24874 12.89634,-5.24874 10.34753,0 18.74552,8.39799 18.74552,18.74552 0,7.64818 -4.65064,14.2466 -10.79917,17.24589 0.29992,1.79957 0.45106,3.59797 0.45106,5.5475 0,28.79313 -33.44261,52.03934 -74.83273,52.03934 -41.39012,0 -74.832729,-23.24621 -74.832729,-52.03934 0,-1.94953 0.151134,-3.89731 0.451062,-5.69688 -6.598425,-2.99929 -11.097937,-9.44833 -11.097937,-17.09651 0,-10.34753 8.397996,-18.74552 18.745524,-18.74552 4.94882,0 9.59713,2.09949 12.89634,5.24874 12.89692,-9.44774 30.74383,-15.29576 50.68908,-15.89562 l 9.44891,-44.690505 c 0.29993,-0.899785 0.74982,-1.650191 1.49964,-2.100084 0.74982,-0.449892 1.64844,-0.598102 2.54823,-0.448138 l 31.04142,6.596087 c 2.0995,-4.498927 6.59901,-7.498211 11.84776,-7.498211 z m -82.92846,77.533251 c -7.34825,0 -13.3474,5.99916 -13.3474,13.3474 0,7.34825 5.99915,13.34448 13.3474,13.34448 7.34825,0 13.34447,-5.99623 13.34447,-13.34448 0,-7.34824 -5.99622,-13.3474 -13.34447,-13.3474 z m 58.7848,0 c -7.34824,0 -13.3474,5.99916 -13.3474,13.3474 0,7.34825 5.99916,13.34448 13.3474,13.34448 7.34825,0 13.3474,-5.99623 13.3474,-13.34448 0,-7.34824 -5.99915,-13.3474 -13.3474,-13.3474 z m -58.40989,42.62558 c -0.89979,0 -1.80016,0.33859 -2.47499,1.01342 -1.34968,1.34968 -1.34968,3.60032 0,4.94999 8.99785,8.99786 26.54308,9.74768 31.64186,9.74768 5.09878,0 22.49405,-0.59986 31.64186,-9.74768 1.34968,-1.34967 1.35144,-3.45034 0.30169,-4.94999 -1.34968,-1.34967 -3.60031,-1.34967 -4.94999,0 -5.84861,5.69864 -17.99629,7.79697 -26.84418,7.79697 -8.84789,0 -21.14554,-2.09833 -26.84418,-7.79697 -0.67484,-0.67483 -1.57228,-1.01342 -2.47207,-1.01342 z"
   id="circle4"
   inkscape:connector-curvature="0"
   sodipodi:nodetypes="sssccccsscssscsscccsccssssssssssssssssccsss" />
		
	</g>
<g
   id="Spacing_Guide"
   class="st2"
   style="display:none"
   transform="translate(-85.669776,-93.817009)">
	<rect
   class="st3"
   width="85.400002"
   height="85.400002"
   id="rect11"
   x="0"
   y="0"
   style="display:inline;fill:none;stroke:#d8d8d8;stroke-width:0.5;stroke-miterlimit:10" />
	<rect
   class="st3"
   width="341.79999"
   height="85.400002"
   id="rect13"
   x="0"
   y="0"
   style="display:inline;fill:none;stroke:#d8d8d8;stroke-width:0.5;stroke-miterlimit:10" />
	<rect
   y="256.29999"
   class="st3"
   width="341.79999"
   height="85.400002"
   id="rect15"
   x="0"
   style="display:inline;fill:none;stroke:#d8d8d8;stroke-width:0.5;stroke-miterlimit:10" />
	<rect
   class="st3"
   width="85.400002"
   height="341.79999"
   id="rect17"
   x="0"
   y="0"
   style="display:inline;fill:none;stroke:#d8d8d8;stroke-width:0.5;stroke-miterlimit:10" />
	<rect
   x="256.39999"
   class="st3"
   width="85.400002"
   height="341.79999"
   id="rect19"
   y="0"
   style="display:inline;fill:none;stroke:#d8d8d8;stroke-width:0.5;stroke-miterlimit:10" />
</g>
</svg>