<?xml version="1.0" encoding="UTF-8" standalone="no"?>
<!-- Created with Inkscape (http://www.inkscape.org/) -->

<svg
   xmlns:dc="http://purl.org/dc/elements/1.1/"
   xmlns:cc="http://creativecommons.org/ns#"
   xmlns:rdf="http://www.w3.org/1999/02/22-rdf-syntax-ns#"
   xmlns:svg="http://www.w3.org/2000/svg"
   xmlns="http://www.w3.org/2000/svg"
   xmlns:sodipodi="http://sodipodi.sourceforge.net/DTD/sodipodi-0.dtd"
   xmlns:inkscape="http://www.inkscape.org/namespaces/inkscape"
   width="460.48999mm"
   height="98.882072mm"
   viewBox="0 0 460.48999 98.882067"
   version="1.1"
   id="svg1180"
   inkscape:version="0.92.4 (5da689c313, 2019-01-14)"
   sodipodi:docname="logo3.svg">
  <defs
     id="defs1174" />
  <sodipodi:namedview
     id="base"
     pagecolor="#ffffff"
     bordercolor="#666666"
     borderopacity="1.0"
     inkscape:pageopacity="0.0"
     inkscape:pageshadow="2"
     inkscape:zoom="1.1859107"
     inkscape:cx="870.21731"
     inkscape:cy="186.86376"
     inkscape:document-units="mm"
     inkscape:current-layer="g4762"
     showgrid="false"
     fit-margin-top="0"
     fit-margin-left="0"
     fit-margin-right="0"
     fit-margin-bottom="0"
     inkscape:window-width="2560"
     inkscape:window-height="1377"
     inkscape:window-x="2552"
     inkscape:window-y="-8"
     inkscape:window-maximized="1" />
  <metadata
     id="metadata1177">
    <rdf:RDF>
      <cc:Work
         rdf:about="">
        <dc:format>image/svg+xml</dc:format>
        <dc:type
           rdf:resource="http://purl.org/dc/dcmitype/StillImage" />
        <dc:title />
      </cc:Work>
    </rdf:RDF>
  </metadata>
  <g
     inkscape:label="Layer 1"
     inkscape:groupmode="layer"
     id="layer1"
     transform="translate(165.8252,751.4407)">
    <text
       xml:space="preserve"
       style="font-style:normal;font-weight:normal;font-size:123.47222137px;line-height:1.25;font-family:sans-serif;letter-spacing:0px;word-spacing:0px;fill:#000000;fill-opacity:1;stroke:none;stroke-width:0.26458332"
       x="258.64001"
       y="-323.2558"
       id="text937"><tspan
         sodipodi:role="line"
         id="tspan935"
         x="258.64001"
         y="-214.01183"
         style="stroke-width:0.26458332" /></text>
    <text
       xml:space="preserve"
       style="font-style:normal;font-weight:normal;font-size:123.47222137px;line-height:1.25;font-family:sans-serif;letter-spacing:0px;word-spacing:0px;fill:#000000;fill-opacity:1;stroke:none;stroke-width:0.26458332"
       x="-534.60016"
       y="-720.85504"
       id="text848"><tspan
         sodipodi:role="line"
         id="tspan846"
         x="-534.60016"
         y="-611.61108"
         style="stroke-width:0.26458332" /></text>
    <g
       id="g4762"
       transform="translate(9.2831496,7.2148975)">
      <g
         id="g4797">
        <g
           transform="translate(-9.7424274,-3.1107509)"
           id="g4739">
          <path
             style="font-style:normal;font-variant:normal;font-weight:normal;font-stretch:normal;font-size:123.47222137px;line-height:1.25;font-family:'Futura MdCn BT';-inkscape-font-specification:'Futura MdCn BT';letter-spacing:6.61458349px;word-spacing:0px;direction:ltr;fill:#1e88e5;fill-opacity:1;stroke:none;stroke-width:1.32291663;stroke-miterlimit:4;stroke-dasharray:none;stroke-opacity:1"
             d="m 33.072266,-745.66992 c -7.979199,-0.13425 -11.623579,11.37276 -5.261719,16.02539 5.694007,5.0893 15.705724,-0.30681 14.503906,-7.88086 -0.311203,-4.63136 -4.568666,-8.49086 -9.242187,-8.14453 z"
             id="path4668"
             inkscape:connector-curvature="0" />
          <path
             style="font-style:normal;font-variant:normal;font-weight:normal;font-stretch:normal;font-size:123.47222137px;line-height:1.25;font-family:'Futura MdCn BT';-inkscape-font-specification:'Futura MdCn BT';letter-spacing:6.61458349px;word-spacing:0px;direction:ltr;fill:#1e88e5;fill-opacity:1;stroke:none;stroke-width:1.32291663;stroke-miterlimit:4;stroke-dasharray:none;stroke-opacity:1"
             d="m 119.37109,-745.66992 c -7.97882,-0.13307 -11.62219,11.37166 -5.26171,16.02539 5.69385,5.08895 15.70747,-0.30566 14.5039,-7.88086 -0.30821,-4.63159 -4.57013,-8.49094 -9.24219,-8.14453 z"
             id="path4672"
             inkscape:connector-curvature="0" />
          <path
             inkscape:connector-curvature="0"
             id="path854"
             d="m -30.912109,-721.53711 c -3.252949,0.14017 -6.525151,1.17446 -9.072266,3.24414 0.156221,-4.96886 -12.262376,-2.65708 -14.732422,-1.66601 0,20.71419 0,41.42838 0,62.14257 4.818379,-1.46612 16.175819,3.60681 14.853516,-4 0.462646,-14.35795 -0.876186,-28.91366 0.572265,-43.16797 1.583836,-4.99634 10.346473,-3.31655 9.214844,2.3379 0.340817,14.93417 0.03394,29.88861 0.138672,44.83007 4.792296,-1.45184 16.071543,3.58327 14.732422,-4 0.444643,-14.23608 -0.81726,-28.64482 0.488281,-42.79687 1.397059,-5.29992 10.7615914,-4.02315 9.7207032,1.90625 0.3403694,14.95448 0.034276,29.92894 0.1386719,44.89062 4.81795913,-1.46589 16.1741319,3.60643 14.8515625,-4 -0.4396916,-16.16561 0.8165494,-32.44521 -0.4960937,-48.55468 -0.9813361,-8.84644 -10.9330553,-13.00223 -18.78125,-10.67383 -3.4916949,0.38678 -6.6917849,3.90552 -8.9160159,4.81445 -3.02452,-3.78744 -7.910921,-5.70381 -12.71289,-5.30664 z"
             style="font-style:normal;font-variant:normal;font-weight:normal;font-stretch:normal;font-size:123.47222137px;line-height:1.25;font-family:'Futura MdCn BT';-inkscape-font-specification:'Futura MdCn BT';letter-spacing:6.61458349px;word-spacing:0px;direction:ltr;fill:#1e88e5;fill-opacity:1;stroke:none;stroke-width:1.32291663;stroke-miterlimit:4;stroke-dasharray:none;stroke-opacity:1" />
          <path
             style="font-style:normal;font-variant:normal;font-weight:normal;font-stretch:normal;font-size:123.47222137px;line-height:1.25;font-family:'Futura MdCn BT';-inkscape-font-specification:'Futura MdCn BT';letter-spacing:6.61458349px;word-spacing:0px;direction:ltr;fill:#1e88e5;fill-opacity:1;stroke:none;stroke-width:1.32291663;stroke-miterlimit:4;stroke-dasharray:none;stroke-opacity:1"
             d="m 26.054688,-718.95898 c 0,20.38085 -10e-7,40.76171 0,61.14257 4.817959,-1.46589 16.174131,3.60643 14.851562,-4 0,-19.71419 0,-39.42838 0,-59.14257 -4.15852,1.1506 -14.111201,-2.41561 -14.851562,2 z"
             id="path856"
             inkscape:connector-curvature="0" />
          <path
             inkscape:connector-curvature="0"
             id="path858"
             d="m 81.804688,-753.26367 c -0.289356,11.12914 0.575133,24.70733 -0.425782,34.32617 -7.525894,-6.05299 -20.101772,-2.65934 -23.082031,6.69336 -4.615446,13.09403 -4.128788,27.66181 -1.574219,41.14648 1.270116,7.8678 7.962909,15.39829 16.476563,14.33399 3.080364,0.20666 6.800716,-2.11432 8.605469,-3.05274 0.688373,3.26193 14.1587,3.28606 14.851562,0 0,-31.81575 0,-63.63151 0,-95.44726 -4.15852,1.1506 -14.111201,-2.41561 -14.851562,2 z m -5.390626,45.48242 c 6.087886,1.43423 5.096015,9.60923 5.685547,14.50977 -0.324256,7.15042 1.253013,15.69312 -3.46289,21.64843 -5.372529,3.24774 -8.467427,-3.89649 -8.296875,-8.27929 -0.348389,-8.7306 -1.739925,-18.40466 2.355468,-26.42774 0.878356,-1.11929 2.335731,-1.57181 3.71875,-1.45117 z"
             style="font-style:normal;font-variant:normal;font-weight:normal;font-stretch:normal;font-size:123.47222137px;line-height:1.25;font-family:'Futura MdCn BT';-inkscape-font-specification:'Futura MdCn BT';letter-spacing:6.61458349px;word-spacing:0px;direction:ltr;fill:#1e88e5;fill-opacity:1;stroke:none;stroke-width:1.32291663;stroke-miterlimit:4;stroke-dasharray:none;stroke-opacity:1" />
          <path
             style="font-style:normal;font-variant:normal;font-weight:normal;font-stretch:normal;font-size:123.47222137px;line-height:1.25;font-family:'Futura MdCn BT';-inkscape-font-specification:'Futura MdCn BT';letter-spacing:6.61458349px;word-spacing:0px;direction:ltr;fill:#1e88e5;fill-opacity:1;stroke:none;stroke-width:1.32291663;stroke-miterlimit:4;stroke-dasharray:none;stroke-opacity:1"
             d="m 112.35352,-718.95898 c 0,20.38085 0,40.76171 0,61.14257 4.81795,-1.46589 16.17413,3.60643 14.85156,-4 0,-19.71419 0,-39.42838 0,-59.14257 -4.15852,1.1506 -14.1112,-2.41561 -14.85156,2 z"
             id="path860"
             inkscape:connector-curvature="0" />
          <path
             inkscape:connector-curvature="0"
             id="path862"
             d="m 157.90625,-722.03711 c -10.21783,0.0825 -14.98782,11.29377 -15.87021,20.0119 -1.21416,13.08343 -2.16983,27.73803 5.02255,39.37287 4.44932,6.9018 15.0397,7.85667 21.04493,2.5 0.36232,4.38793 12.3639,2.40152 14.85156,1.33593 0,-20.71419 0,-41.42838 0,-62.14257 -4.80015,0.75018 -14.17613,-1.82603 -15.23633,1.93359 -2.75602,-2.18843 -6.3248,-3.14016 -9.8125,-3.01172 z m 4.82227,14.13477 c 6.43022,1.74083 5.1104,10.4696 5.70703,15.75195 -0.4523,6.86816 1.26795,15.63127 -4.10743,20.85351 -6.40028,2.40296 -7.75808,-6.29175 -7.88476,-10.79492 0.0337,-8.28906 -1.67176,-17.68193 3.04883,-24.86718 0.8767,-0.77783 2.09384,-1.02617 3.23633,-0.94336 z"
             style="font-style:normal;font-variant:normal;font-weight:normal;font-stretch:normal;font-size:123.47222137px;line-height:1.25;font-family:'Futura MdCn BT';-inkscape-font-specification:'Futura MdCn BT';letter-spacing:6.61458349px;word-spacing:0px;direction:ltr;fill:#ffa000;fill-opacity:1;stroke:none;stroke-width:1.32291663;stroke-miterlimit:4;stroke-dasharray:none;stroke-opacity:1" />
          <path
             inkscape:connector-curvature="0"
             id="path864"
             d="m 222.68359,-721.53711 c -3.37354,0.14976 -6.77686,1.20117 -9.41992,3.35156 0.30869,-5.15574 -12.25264,-2.73823 -14.73047,-1.77343 0,20.71419 0,41.42838 0,62.14257 4.81796,-1.46589 16.17413,3.60643 14.85157,-4 0.41243,-14.24217 -0.76532,-28.64026 0.47265,-42.80468 1.34956,-5.30363 10.73967,-4.00769 9.67383,1.9082 0.349,14.95606 0.036,29.93291 0.14258,44.89648 4.83094,-1.47309 16.22651,3.61844 14.91211,-4 -0.43862,-16.16579 0.81505,-32.44456 -0.4961,-48.55468 -1.11377,-7.64568 -7.99093,-11.88277 -15.40625,-11.16602 z"
             style="font-style:normal;font-variant:normal;font-weight:normal;font-stretch:normal;font-size:123.47222137px;line-height:1.25;font-family:'Futura MdCn BT';-inkscape-font-specification:'Futura MdCn BT';letter-spacing:6.61458349px;word-spacing:0px;direction:ltr;fill:#ffa000;fill-opacity:1;stroke:none;stroke-width:1.32291663;stroke-miterlimit:4;stroke-dasharray:none;stroke-opacity:1" />
          <path
             inkscape:connector-curvature="0"
             id="path866"
             d="m 272.47656,-722.03711 c -10.56399,-0.32477 -18.46061,9.19822 -19.96094,18.99805 -2.10756,13.10597 -2.72349,28.42595 5.59376,39.61328 8.3908,10.57365 27.48111,8.30454 32.75781,-4.32227 5.51741,-12.61027 5.39242,-27.54948 1.23058,-40.53777 -2.85967,-8.34559 -10.5917,-14.37781 -19.62121,-13.75129 z m 1.03906,13.5918 c 6.72933,1.72089 6.06567,10.82888 6.59571,16.29492 -0.35136,7.00531 1.10915,16.28558 -5.09961,21.12305 -7.12941,2.10563 -8.30576,-7.55808 -8.57031,-12.51563 0.0497,-7.8959 -1.52461,-17.40981 3.88476,-24.04883 0.90014,-0.69525 2.07229,-0.93391 3.18945,-0.85351 z"
             style="font-style:normal;font-variant:normal;font-weight:normal;font-stretch:normal;font-size:123.47222137px;line-height:1.25;font-family:'Futura MdCn BT';-inkscape-font-specification:'Futura MdCn BT';letter-spacing:6.61458349px;word-spacing:0px;direction:ltr;fill:#ffa000;fill-opacity:1;stroke:none;stroke-width:1.32291663;stroke-miterlimit:4;stroke-dasharray:none;stroke-opacity:1" />
        </g>
        <rect
           style="opacity:1;fill:#ffa000;fill-opacity:1;stroke:none;stroke-width:0.83631068;stroke-miterlimit:4;stroke-dasharray:none;stroke-opacity:1"
           id="rect4741"
           width="15.804297"
           height="15.804297"
           x="-106.20854"
           y="-727.90784"
           rx="2.3706446"
           ry="2.3706446" />
        <g
           transform="matrix(0.79021487,0,0,0.79021487,-373.77017,-826.23923)"
           id="g4749"
           style="stroke:none">
          <rect
             ry="3"
             rx="3"
             y="189.19888"
             x="356.69409"
             height="20"
             width="20"
             id="rect4743"
             style="opacity:1;fill:#ffa000;fill-opacity:1;stroke:none;stroke-width:1.05833328;stroke-miterlimit:4;stroke-dasharray:none;stroke-opacity:1" />
          <rect
             style="opacity:1;fill:#ffa000;fill-opacity:1;stroke:none;stroke-width:1.05833328;stroke-miterlimit:4;stroke-dasharray:none;stroke-opacity:1"
             id="rect4745"
             width="20"
             height="20"
             x="358.59351"
             y="147.61136"
             rx="3"
             ry="3" />
          <rect
             ry="3"
             rx="3"
             y="167.61136"
             x="338.59351"
             height="20"
             width="20"
             id="rect4747"
             style="opacity:1;fill:#ffa000;fill-opacity:1;stroke:none;stroke-width:1.05833328;stroke-miterlimit:4;stroke-dasharray:none;stroke-opacity:1" />
        </g>
        <rect
           ry="2.3706446"
           rx="2.3706446"
           y="-726.77832"
           x="-127.80857"
           height="31.733618"
           width="15.766591"
           id="rect4751"
           style="opacity:1;fill:#1e88e5;fill-opacity:1;stroke:none;stroke-width:0.83631068;stroke-miterlimit:4;stroke-dasharray:none;stroke-opacity:1" />
        <rect
           style="opacity:1;fill:#1e88e5;fill-opacity:1;stroke:none;stroke-width:0.83631068;stroke-miterlimit:4;stroke-dasharray:none;stroke-opacity:1"
           id="rect4753"
           width="15.766591"
           height="31.733618"
           x="-175.10835"
           y="-695.04468"
           rx="2.3706446"
           ry="2.3706446" />
        <rect
           ry="2.3706446"
           rx="2.3706446"
           y="-695.04468"
           x="-143.57515"
           height="31.733618"
           width="15.766591"
           id="rect4764"
           style="opacity:1;fill:#1e88e5;fill-opacity:1;stroke:none;stroke-width:0.83631068;stroke-miterlimit:4;stroke-dasharray:none;stroke-opacity:1" />
        <rect
           style="opacity:1;fill:#1e88e5;fill-opacity:1;stroke:none;stroke-width:0.83631068;stroke-miterlimit:4;stroke-dasharray:none;stroke-opacity:1"
           id="rect4766"
           width="15.766591"
           height="31.733618"
           x="-159.34175"
           y="-726.77832"
           rx="2.3706446"
           ry="2.3706446" />
      </g>
    </g>
  </g>
</svg>
